<svg version="1" xmlns="http://www.w3.org/2000/svg" width="266.667" height="266.667" viewBox="0 0 200.000000 200.000000"><path d="M74.8 43.5C61.7 66.3 51 85.2 51 85.5c0 .3 21.7.5 48.1.5 45.4 0 48.1-.1 47.6-1.8-.8-2.7-46.4-81.6-47.3-81.9-.5-.2-11.6 18.4-24.6 41.2zM51.5 90.7c1 2.7 46.1 81.3 47.3 82.5.7.7 47.4-79.8 48-82.7.3-1.3-5.9-1.5-47.8-1.5-45.5 0-48.2.1-47.5 1.7zM28 127.2C16.8 146.6 6.4 165 4.7 168c-1.6 3-3.4 5.9-3.8 6.5-.5.5-.9 1.3-.9 1.7 0 .4 21.9.8 48.6.8 42.1 0 48.5-.2 48.1-1.5-.4-.8-4.1-7.4-8.3-14.7-4.2-7.3-9-15.8-10.7-18.8-1.6-3-3.8-6.7-4.9-8.2-1-1.4-1.8-2.9-1.8-3.2 0-.4-2-3.9-4.4-7.9-2.4-3.9-5.2-8.8-6.3-10.7-3.7-6.9-11.5-20-11.8-20-.2 0-9.4 15.9-20.5 35.2zM144.2 101.3c-2.8 5-5.9 10.3-6.7 11.7-.8 1.4-4.2 7.1-7.5 12.8-3.3 5.6-6 10.5-6 10.8 0 .3-.8 1.8-1.8 3.2-1.1 1.5-3.3 5.2-4.9 8.2-1.7 3-5.8 10.3-9.2 16.1-3.3 5.8-6.1 11.1-6.1 11.8 0 .8 12.7 1.1 48 1.1 38.1 0 48-.3 48-1.3 0-.7-1.1-2.9-2.5-4.9-1.4-2-2.5-3.9-2.5-4.2 0-.3-2.7-5.2-6-10.8-8.4-14.4-7.5-12.7-22.7-39.5C156.7 103 150.3 92 150 92c-.3 0-2.9 4.2-5.8 9.3zM80.7 185.7c-.4.3-.7 3.1-.7 6v5.4l3.8-.3c3.5-.3 3.7-.5 3.7-3.8 0-2.7-.5-3.7-2.2-4.5-1.3-.5-2.3-1.5-2.3-2.2 0-1.4-1.3-1.7-2.3-.6zm5.1 7.9c-.5 2.8-2.8 2.9-2.8.1 0-1.3.3-2.7.7-3.1 1-1 2.5 1 2.1 3zM128.7 185.7c-.4.3-.7 3-.7 6 0 4 .4 5.3 1.5 5.3 1.2 0 1.5-1.3 1.5-6 0-5.5-.6-7-2.3-5.3zM13 191.5c0 5.8 1.9 7.8 2.1 2.2l.1-3.2 1 3.2c1.3 4 3.3 4.2 4.6.5l1-2.7.1 2.7c.1 1.8.6 2.8 1.6 2.8 1.2 0 1.5-1.3 1.5-5.5 0-6.7-2.2-7.5-4.7-1.8-1.6 4-1.8 3.9-3.7-2-.3-.9-1.2-1.7-2.1-1.7-1.2 0-1.5 1.2-1.5 5.5zM26.1 191.5c-.1 4.4.2 5.5 1.4 5.5s1.5-1.1 1.4-5.5c-.1-3.5-.6-5.5-1.4-5.5-.8 0-1.3 2-1.4 5.5zM57.6 188.7c1.5 7.2 3.8 10.3 4.9 6.8 1.6-4.9 1.8-5 2.8-1.8 1.3 4.4 3.1 4.2 4.5-.6 1.4-4.6 1.5-7.1.3-7.1-1.1 0-2.1 2.4-2.2 5.3 0 1.6-.4 1.2-1.2-1.3-1.5-4.3-4-4.6-4.7-.5l-.6 3-1.1-3.3c-1.5-3.9-3.6-4.3-2.7-.5zM94 191.5v5.5h3.3c4.1 0 5.7-1.5 5.7-5.5s-1.6-5.5-5.7-5.5H94v5.5zm5.8-2.3c1.6 1.6 1.5 3.3-.4 5.2-2.5 2.5-3.4 1.9-3.4-2.4 0-4.1 1.4-5.2 3.8-2.8zM181.8 188.1c-.2.5-.2 2.8 0 5 .4 3.5.7 3.9 3.1 3.9 2.2-.1 2.4-.2.9-1.1-2.3-1.3-2.3-4.8-.2-5.6 1.5-.6 1.5-.8-.2-2-2.2-1.6-3.1-1.6-3.6-.2zM30 192.6c0 2.4.5 4.4 1 4.4.6 0 1-1.4 1-3 0-2.3.5-3 1.9-3 1.5 0 2.1.9 2.4 3.2.3 2.2.4 1.8.3-1.2-.1-4.3-.2-4.5-3.3-4.7-3.3-.1-3.3-.1-3.3 4.3zM40.1 189.4c-.7.8-1.1 2.7-.9 4.3.3 2.5.7 2.8 3.8 2.8 3.1 0 3.5-.3 3.8-2.8.4-3.2-1.3-5.7-3.8-5.7-1 0-2.3.6-2.9 1.4zm4.6 3.1c.5 1.6-1.4 3.8-2.6 3.1-1.8-1.2-1.3-4.8.6-4.4.9.2 1.8.7 2 1.3zM48.5 188.9c-.3.2-.5 2.2-.5 4.3 0 2.7.4 3.8 1.5 3.8 1 0 1.5-1 1.5-2.9 0-1.7.6-3.1 1.6-3.5 2.1-.8.9-2.5-1.7-2.3-1.1.1-2.2.3-2.4.6zM73.1 189.4c-.7.8-1.1 2.7-.9 4.3.2 2.3.8 2.9 3.6 3.1 1.9.2 3.2-.1 3.2-.8 0-.7-.8-.9-1.9-.5-1.1.3-2.2.1-2.6-.5-.4-.6.4-1 1.9-1 1.8 0 2.6-.5 2.6-1.8 0-3.7-3.7-5.4-5.9-2.8zm3.4 1.6c.3.5-.1 1-1 1s-1.3-.5-1-1c.3-.6.8-1 1-1 .2 0 .7.4 1 1zM105.1 189.4c-.7.8-1.1 2.7-.9 4.3.2 2.3.8 2.9 3.6 3.1 1.7.2 3.2-.1 3.2-.6 0-.6-.9-.8-2-.5-1.1.3-2 0-2-.6s.6-1.1 1.4-1.1c.8 0 2.1-.3 2.9-.6 1-.3 1.8.2 2.2 1.5.3 1.2 1.2 2.1 2 2.1 1.4 0 4.6-7 3.7-8.4-.6-1.1-3.2 2.2-3.2 4.3-.1.9-.8 0-1.7-1.9-1.2-2.6-1.7-3.1-2-1.8-.4 1.6-.6 1.6-1.9.3-1.9-1.9-3.8-1.9-5.3-.1zm3.4 1.6c.3.5-.1 1-1 1s-1.3-.5-1-1c.3-.6.8-1 1-1 .2 0 .7.4 1 1zM121.1 189.4c-.7.8-1.1 2.7-.9 4.3.2 2.3.8 2.9 3.6 3.1 1.9.2 3.2-.1 3.2-.8 0-.7-.8-.9-1.9-.5-1.1.3-2.2.1-2.6-.5-.4-.6.4-1 1.9-1 2.1 0 2.6-.5 2.6-2.4 0-3.4-3.8-4.8-5.9-2.2zm3.4 1.6c.3.5-.1 1-1 1s-1.3-.5-1-1c.3-.6.8-1 1-1 .2 0 .7.4 1 1zM133.1 189.4c-.7.8-1.1 2.7-.9 4.3.3 2.5.7 2.8 3.8 2.8 3.1 0 3.5-.3 3.8-2.8.4-3.2-1.3-5.7-3.8-5.7-1 0-2.3.6-2.9 1.4zm4.9 3.5c0 2.5-2 3.8-3.1 2-1.5-2.3-1-3.9 1.1-3.9 1.3 0 2 .7 2 1.9zM141.4 188.9c-.9.9-.4 11.1.6 11.1.6 0 1-.6 1-1.4 0-.9 1.2-1.6 2.8-1.8 2.1-.2 2.8-.9 3-3.1.4-3.6-1.3-5.7-4.5-5.5-1.3.2-2.6.4-2.9.7zm5.6 4.1c0 2.6-1.5 3.3-3 1.5-1-1.2-1-1.8 0-3 1.5-1.8 3-1.1 3 1.5zM150.5 188.8c-.3.3-.5 2.3-.5 4.4 0 4.9 2.7 5.4 3.2.5.2-1.7.8-3.2 1.3-3.2.6 0 1.1 1.5 1.3 3.2.4 4.1 2.2 4.4 2.2.4 0-1.7.5-3.3 1-3.6.6-.4 1 .8 1 2.9 0 2.5.4 3.6 1.5 3.6 1.9 0 2.1-6.5.3-7.7-1.4-.9-10.5-1.3-11.3-.5zM165.1 189.4c-.7.8-1.1 2.7-.9 4.3.2 2.3.8 2.9 3.6 3.1 1.7.2 3.2-.1 3.2-.6 0-.6-.9-.8-2-.5-1.1.3-2 .1-2-.5s1-1.2 2.2-1.4c2.8-.4 3.3-2.1 1.3-4.2-2-2-3.9-2-5.4-.2zm3.4 1.6c.3.5-.1 1-1 1s-1.3-.5-1-1c.3-.6.8-1 1-1 .2 0 .7.4 1 1zM173 192.7c0 2.4.5 4.3 1 4.3.6 0 1-1.4 1-3 0-2 .5-3 1.5-3s1.5 1 1.5 3 .5 3 1.5 3 1.5-1 1.5-2.8c0-4-1.5-5.7-5-5.7-2.9-.1-3 .1-3 4.2z"/></svg>